<svg xmlns="http://www.w3.org/2000/svg" viewBox="0 0 1200 700">
<defs>
  <radialGradient id="bg"><stop stop-color="#24152d"/><stop offset="1" stop-color="#07090c"/></radialGradient>
  <linearGradient id="path" x1="0" x2="1"><stop stop-color="#6b4a7c"/><stop offset="1" stop-color="#c55b83"/></linearGradient>
  <filter id="glow"><feGaussianBlur stdDeviation="7" result="b"/><feMerge><feMergeNode in="b"/><feMergeNode in="SourceGraphic"/></feMerge></filter>
</defs>
<rect width="1200" height="700" fill="url(#bg)"/>
<g opacity=".2" fill="#b96bc9"><circle cx="180" cy="150" r="90"/><circle cx="1030" cy="510" r="130"/><circle cx="630" cy="330" r="170"/></g>
<path d="M130 560 C280 480 230 310 420 330 S650 490 760 350 S920 190 1080 250" fill="none" stroke="#34223f" stroke-width="34"/>
<path d="M130 560 C280 480 230 310 420 330 S650 490 760 350 S920 190 1080 250" fill="none" stroke="url(#path)" stroke-width="8" stroke-dasharray="14 12" filter="url(#glow)"/>
<g font-family="Georgia,serif" fill="#ead9ef" text-anchor="middle">
 <text x="600" y="55" font-size="34">RUÍNAS AMALDIÇOADAS</text>
 <text x="600" y="82" font-size="13" fill="#9d89a5">A CORRUPÇÃO NÃO É UMA CHAVE. É O PRÓPRIO PERIGO.</text>
</g>
<g stroke="#745184" stroke-width="2" fill="#120e16">
 <g transform="translate(80 490)"><circle r="62"/><path d="M-35 20 L-10-25 L10 0 L30-32 L45 28Z" fill="#50325d"/><text y="90" text-anchor="middle" fill="#c8a8d6" stroke="none" font-size="15">PORTÃO PARTIDO</text></g>
 <g transform="translate(420 300)"><circle r="68"/><path d="M-30 35 V-25 H30 V35 M-18-5 H18" fill="none" stroke="#bd7cc9" stroke-width="7"/><text y="96" text-anchor="middle" fill="#c8a8d6" stroke="none" font-size="15">TEMPLO PROFANO</text></g>
 <g transform="translate(760 350)"><circle r="72"/><path d="M-35 30 L-5-45 L5-10 L35 30 M-25 10 H25" fill="#613c6d"/><text y="100" text-anchor="middle" fill="#c8a8d6" stroke="none" font-size="15">TORRE DA RUÍNA</text></g>
 <g transform="translate(1080 250)"><circle r="78"/><path d="M-42 35 L0-48 L42 35 Z M-10 35 V-5 H10 V35" fill="#7a465f"/><text y="108" text-anchor="middle" fill="#dcb5c8" stroke="none" font-size="15">CORAÇÃO CORROMPIDO</text></g>
</g>
<g font-family="monospace" font-size="12" fill="#8e7896">
 <text x="55" y="650">REGRA: cada ataque aumenta a Corrupção.</text>
 <text x="55" y="670">100% = SURTO. Sobreviva e leve o bônus de Gold.</text>
</g>
</svg>